# xmcd
#
# Track frame offsets:
#	150
#	16841
#	30562
#	47002
#	66112
#	85042
#	99072
#	112562
#	128073
#	145773
#
# Disc length: 2227 seconds
#
# Revision: 0
# Processed by: cddbd v1.5.2PL0 Copyright (c) Steve Scherf et al.
# Submitted via: audiograbber 1.83.01
#
DISCID=6808b10a
DTITLE=Anson Carter - 100 Degrees In the Shade
DYEAR=2011
DGENRE=Country
TTITLE0=100 Degrees In the Shade
TTITLE1=Reckless Hearts
TTITLE2=Six String
TTITLE3=Blue Collar
TTITLE4=Glad We Did
TTITLE5=One of Those Days
TTITLE6=Put It In Drunk
TTITLE7=God Is Single
TTITLE8=Last Time
TTITLE9=Sweet Dreams
EXTD=
EXTT0=
EXTT1=
EXTT2=
EXTT3=
EXTT4=
EXTT5=
EXTT6=
EXTT7=
EXTT8=
EXTT9=
PLAYORDER=
